<svg width="37" height="32" viewBox="0 0 37 32" fill="none" xmlns="http://www.w3.org/2000/svg">
<path d="M32.4972 0.3218C32.4034 0.1749 32.258 0.0685095 32.0899 0.0235718C31.9216 -0.021366 31.7427 -0.00159654 31.5884 0.0789888L1.53518 11.6428C1.08074 11.8149 0.919167 12.0577 0.898971 12.3612L0.0103025 24.7749C-0.00546409 24.8623 -0.00311293 24.952 0.0172096 25.0385C0.0375324 25.1249 0.0753918 25.2063 0.128433 25.2774C0.181475 25.3486 0.248565 25.4081 0.325531 25.4522C0.402498 25.4962 0.48769 25.524 0.575818 25.5337L34.3452 31.9681C34.7189 32.0491 34.9714 31.7456 35.0016 31.3105L36.0114 17.2275C36.5196 11.369 35.2973 5.49013 32.4972 0.3218ZM33.3354 30.1876H33.2748L1.76744 24.2892C1.60417 24.2419 1.46514 24.1338 1.37879 23.9871C1.29243 23.8404 1.26529 23.6662 1.30291 23.5001C1.30581 23.4114 1.32779 23.3243 1.36735 23.2448C1.40691 23.1654 1.46313 23.0954 1.53215 23.0397C1.60117 22.984 1.68139 22.9439 1.76731 22.9221C1.85323 22.9002 1.94283 22.8973 2.03 22.9133L33.507 28.8015C33.6711 28.851 33.8103 28.9611 33.8965 29.1094C33.9827 29.2578 34.0096 29.4334 33.9716 29.6007C33.9612 29.7617 33.8893 29.9126 33.7709 30.0219C33.6524 30.1311 33.4964 30.1905 33.3354 30.1876ZM33.507 27.6987L1.93912 21.8106C1.77584 21.7632 1.63681 21.6551 1.55046 21.5084C1.46411 21.3617 1.43697 21.1875 1.47459 21.0214C1.47968 20.9381 1.50133 20.8566 1.53828 20.7817C1.57522 20.7069 1.62672 20.6402 1.68974 20.5855C1.75275 20.5308 1.82604 20.4894 1.90527 20.4634C1.98451 20.4375 2.06812 20.4277 2.15119 20.4346L33.6283 26.3127C33.7921 26.3601 33.932 26.4677 34.02 26.614C34.1079 26.7604 34.1376 26.9346 34.1029 27.1018C34.0927 27.262 34.0226 27.4125 33.9065 27.5231C33.7905 27.6338 33.637 27.6965 33.4768 27.6987H33.507ZM33.6888 25.22H33.6283L2.12089 19.3319C1.95684 19.2823 1.81765 19.1723 1.73143 19.0239C1.64521 18.8756 1.61838 18.7 1.65636 18.5326C1.66138 18.4497 1.68308 18.3686 1.72015 18.2942C1.75722 18.2199 1.80889 18.1538 1.87208 18.0999C1.93526 18.0461 2.00865 18.0055 2.08785 17.9808C2.16705 17.9561 2.25042 17.9476 2.33296 17.9559L33.81 23.8441C33.9733 23.8915 34.1123 23.9996 34.1987 24.1463C34.285 24.293 34.3122 24.4672 34.2746 24.6332C34.2644 24.7908 34.1953 24.9386 34.0812 25.0474C33.967 25.1562 33.8161 25.2178 33.6585 25.22H33.6888ZM33.8605 22.7413H33.81L2.30267 16.8532C2.13674 16.8057 1.99519 16.6965 1.90696 16.5479C1.81873 16.3994 1.7905 16.2226 1.82804 16.0539C1.8344 15.9714 1.85699 15.8911 1.8945 15.8174C1.932 15.7437 1.98369 15.6782 2.04657 15.6246C2.10946 15.571 2.1823 15.5303 2.26092 15.5051C2.33953 15.4798 2.42236 15.4703 2.50463 15.4773L33.9918 21.3553C34.1558 21.4048 34.295 21.5149 34.3812 21.6632C34.4675 21.8116 34.4943 21.9872 34.4563 22.1546C34.4437 22.3129 34.3726 22.4609 34.2568 22.5695C34.1409 22.678 33.9888 22.7393 33.8302 22.7413H33.8605ZM34.012 20.2424H33.9514L2.47434 14.3745C2.31402 14.3209 2.17952 14.2092 2.09729 14.0613C2.01506 13.9134 1.99106 13.74 2.03 13.5752C2.03503 13.4923 2.05672 13.4112 2.09379 13.3368C2.13086 13.2625 2.18254 13.1964 2.24572 13.1425C2.30891 13.0887 2.3823 13.0482 2.4615 13.0234C2.54069 12.9987 2.62406 12.9902 2.7066 12.9985L34.1837 18.8766C34.3477 18.9261 34.4869 19.0362 34.5731 19.1845C34.6594 19.3329 34.6862 19.5084 34.6482 19.6758C34.633 19.8332 34.5589 19.9791 34.441 20.0841C34.323 20.1892 34.1698 20.2457 34.012 20.2424Z" fill="#FBC405"/>
</svg>
