<svg width="200" height="32" viewBox="0 0 200 32" fill="none" xmlns="http://www.w3.org/2000/svg">
<g clip-path="url(#clip0_921_1216)">
<path d="M79.3534 10.0244C80.0047 10.7719 80.5004 11.6417 80.8125 12.5831C81.1246 13.5246 81.2467 14.5188 81.1712 15.5079V24.9472H76.3947V16.1959C76.473 15.1568 76.1872 14.1229 75.5869 13.272C75.3043 12.9373 74.9491 12.672 74.5481 12.4966C74.147 12.3212 73.7114 12.2404 73.2744 12.2603C72.7773 12.2368 72.2812 12.3223 71.8207 12.5111C71.3602 12.6998 70.9463 12.9872 70.6082 13.353C69.879 14.2674 69.5185 15.4226 69.5983 16.5904V24.8662H64.852V16.1959C64.852 13.6059 63.8424 12.3008 61.7317 12.3008C61.2392 12.2789 60.7481 12.3654 60.2929 12.5542C59.8374 12.743 59.4289 13.0294 59.0958 13.3934C58.3709 14.3102 58.0111 15.4637 58.0862 16.6309V24.9067H53.3499V8.44615H57.9043V10.3482C58.5232 9.65255 59.294 9.10905 60.1563 8.75979C61.0819 8.3797 62.0744 8.19044 63.0748 8.20334C64.1669 8.18773 65.2484 8.42308 66.2356 8.89131C67.1598 9.34645 67.942 10.0462 68.4975 10.9147C69.1708 10.0405 70.0481 9.34553 71.0527 8.89131C72.1153 8.41106 73.2698 8.16935 74.4356 8.18311C75.337 8.14105 76.2374 8.28252 77.0829 8.59904C77.9281 8.91552 78.7007 9.40039 79.3534 10.0244Z" fill="#252C33"/>
<path d="M101.681 18.0465H89.2196C89.4199 19.0314 89.9911 19.9011 90.8153 20.4746C91.7374 21.0895 92.8285 21.4007 93.9356 21.3649C94.7135 21.3769 95.4868 21.2466 96.2178 20.9804C96.9053 20.6971 97.5324 20.2851 98.0658 19.7664L100.611 22.5284C99.0555 24.309 96.7936 25.1892 93.8146 25.1892C92.1057 25.2288 90.4124 24.8576 88.8761 24.1066C87.5039 23.4348 86.3541 22.381 85.564 21.0715C84.7829 19.7457 84.3811 18.2301 84.4025 16.6908C84.3804 15.1559 84.7786 13.6442 85.5537 12.3202C86.3057 11.0377 87.3961 9.98749 88.7046 9.28505C90.0776 8.58336 91.5968 8.21753 93.1377 8.21753C94.679 8.21753 96.1982 8.58336 97.5712 9.28505C98.8505 9.98493 99.9021 11.0385 100.601 12.3202C101.37 13.7007 101.757 15.2619 101.722 16.8425C101.772 16.8223 101.742 17.2068 101.681 18.0465ZM90.5021 12.7451C89.7559 13.383 89.2765 14.2786 89.1591 15.2542H97.2377C97.1281 14.2903 96.668 13.4007 95.9452 12.7552C95.168 12.1555 94.2146 11.8303 93.2338 11.8303C92.253 11.8303 91.2996 12.1555 90.5224 12.7552L90.5021 12.7451Z" fill="#252C33"/>
<path d="M121.727 2.19323V24.9466H117.152V23.0446C116.516 23.7741 115.72 24.347 114.827 24.719C113.934 25.0909 112.967 25.2519 112.002 25.1894C110.538 25.2207 109.091 24.8721 107.801 24.1777C106.547 23.4949 105.519 22.4614 104.842 21.2033C104.105 19.8306 103.736 18.2898 103.772 16.7315C103.739 15.1703 104.108 13.6269 104.842 12.2496C105.525 10.9957 106.552 9.96359 107.801 9.2752C109.093 8.58549 110.539 8.23726 112.002 8.2635C112.921 8.21778 113.84 8.37536 114.691 8.72505C115.543 9.07477 116.307 9.608 116.93 10.2869V2.19323H121.727ZM115.85 20.0297C116.258 19.5813 116.573 19.0562 116.778 18.4849C116.982 17.9136 117.072 17.3073 117.041 16.7012C117.072 16.095 116.983 15.4885 116.779 14.9172C116.574 14.3457 116.258 13.8208 115.85 13.3727C115.452 12.9738 114.98 12.6573 114.46 12.4414C113.94 12.2255 113.383 12.1143 112.82 12.1143C112.257 12.1143 111.7 12.2255 111.18 12.4414C110.66 12.6573 110.188 12.9738 109.79 13.3727C109.382 13.8208 109.066 14.3457 108.861 14.9172C108.657 15.4885 108.568 16.095 108.599 16.7012C108.568 17.3073 108.658 17.9136 108.862 18.4849C109.067 19.0562 109.382 19.5813 109.79 20.0297C110.596 20.8304 111.685 21.2797 112.82 21.2797C113.955 21.2797 115.044 20.8304 115.85 20.0297Z" fill="#252C33"/>
<path d="M129.27 24.1065C127.933 23.4178 126.817 22.366 126.049 21.0714C125.26 19.7483 124.855 18.2315 124.877 16.6907C124.854 15.1466 125.26 13.6265 126.049 12.2998C126.82 11.0077 127.935 9.95659 129.27 9.26471C130.715 8.52114 132.321 8.14585 133.946 8.17205C135.561 8.14457 137.157 8.52007 138.591 9.26471C139.926 9.95659 141.041 11.0077 141.812 12.2998C142.594 13.6294 142.995 15.1482 142.974 16.6907C142.995 18.23 142.594 19.7456 141.812 21.0714C141.041 22.3636 139.926 23.4147 138.591 24.1065C137.156 24.8477 135.56 25.2197 133.946 25.1891C132.322 25.2184 130.716 24.8466 129.27 24.1065ZM136.955 20.0597C137.772 19.15 138.197 17.9535 138.137 16.7312C138.198 15.5087 137.773 14.3117 136.955 13.4026C136.568 12.9912 136.097 12.6674 135.574 12.4528C135.052 12.2382 134.49 12.1378 133.926 12.1582C133.362 12.1423 132.801 12.2448 132.279 12.4591C131.758 12.6734 131.286 12.9948 130.896 13.4026C130.074 14.3101 129.646 15.5073 129.705 16.7312C129.648 17.9547 130.076 19.151 130.896 20.0597C131.287 20.4657 131.759 20.7852 132.28 20.9977C132.802 21.2103 133.363 21.3112 133.926 21.294C134.496 21.3169 135.065 21.2158 135.594 20.9974C136.122 20.7791 136.597 20.4489 136.985 20.0293L136.955 20.0597Z" fill="#252C33"/>
<path d="M162.07 8.4453L155.122 24.9463H150.194L143.277 8.4453H148.205L152.77 19.6753L157.486 8.4453H162.07Z" fill="#252C33"/>
<path d="M179.984 8.4453L172.542 25.958C172.023 27.5515 171.051 28.9582 169.744 30.0049C168.553 30.8091 167.141 31.2195 165.705 31.1785C164.841 31.1742 163.983 31.0377 163.16 30.7738C162.42 30.5463 161.732 30.1712 161.14 29.671L162.887 26.2717C163.261 26.601 163.692 26.8582 164.16 27.0305C164.613 27.2118 165.096 27.3078 165.584 27.3137C166.15 27.3374 166.708 27.17 167.169 26.8382C167.66 26.4047 168.041 25.8602 168.28 25.2498L168.34 25.0981L161.181 8.4453H166.109L170.734 19.645L175.389 8.4453H179.984Z" fill="#252C33"/>
<path d="M189.013 18.4818L186.71 20.748V24.9466H181.934V2.19323H186.71V15.0723L193.688 8.44562H199.384L192.527 15.4466L200 24.9466H194.214L189.013 18.4818Z" fill="#252C33"/>
<path d="M32.4972 0.3218C32.4034 0.1749 32.258 0.0685095 32.0899 0.0235718C31.9216 -0.021366 31.7427 -0.00159654 31.5884 0.0789888L1.53518 11.6428C1.08074 11.8149 0.919167 12.0577 0.898971 12.3612L0.0103025 24.7749C-0.00546409 24.8623 -0.00311293 24.952 0.0172096 25.0385C0.0375324 25.1249 0.0753918 25.2063 0.128433 25.2774C0.181475 25.3486 0.248565 25.4081 0.325531 25.4522C0.402498 25.4962 0.48769 25.524 0.575818 25.5337L34.3452 31.9681C34.7189 32.0491 34.9714 31.7456 35.0016 31.3105L36.0114 17.2275C36.5196 11.369 35.2973 5.49013 32.4972 0.3218ZM33.3354 30.1876H33.2748L1.76744 24.2892C1.60417 24.2419 1.46514 24.1338 1.37879 23.9871C1.29243 23.8404 1.26529 23.6662 1.30291 23.5001C1.30581 23.4114 1.32779 23.3243 1.36735 23.2448C1.40691 23.1654 1.46313 23.0954 1.53215 23.0397C1.60117 22.984 1.68139 22.9439 1.76731 22.9221C1.85323 22.9002 1.94283 22.8973 2.03 22.9133L33.507 28.8015C33.6711 28.851 33.8103 28.9611 33.8965 29.1094C33.9827 29.2578 34.0096 29.4334 33.9716 29.6007C33.9612 29.7617 33.8893 29.9126 33.7709 30.0219C33.6524 30.1311 33.4964 30.1905 33.3354 30.1876ZM33.507 27.6987L1.93912 21.8106C1.77584 21.7632 1.63681 21.6551 1.55046 21.5084C1.46411 21.3617 1.43697 21.1875 1.47459 21.0214C1.47968 20.9381 1.50133 20.8566 1.53828 20.7817C1.57522 20.7069 1.62672 20.6402 1.68974 20.5855C1.75275 20.5308 1.82604 20.4894 1.90527 20.4634C1.98451 20.4375 2.06812 20.4277 2.15119 20.4346L33.6283 26.3127C33.7921 26.3601 33.932 26.4677 34.02 26.614C34.1079 26.7604 34.1376 26.9346 34.1029 27.1018C34.0927 27.262 34.0226 27.4125 33.9065 27.5231C33.7905 27.6338 33.637 27.6965 33.4768 27.6987H33.507ZM33.6888 25.22H33.6283L2.12089 19.3319C1.95684 19.2823 1.81765 19.1723 1.73143 19.0239C1.64521 18.8756 1.61838 18.7 1.65636 18.5326C1.66138 18.4497 1.68308 18.3686 1.72015 18.2942C1.75722 18.2199 1.80889 18.1538 1.87208 18.0999C1.93526 18.0461 2.00865 18.0055 2.08785 17.9808C2.16705 17.9561 2.25042 17.9476 2.33296 17.9559L33.81 23.8441C33.9733 23.8915 34.1123 23.9996 34.1987 24.1463C34.285 24.293 34.3122 24.4672 34.2746 24.6332C34.2644 24.7908 34.1953 24.9386 34.0812 25.0474C33.967 25.1562 33.8161 25.2178 33.6585 25.22H33.6888ZM33.8605 22.7413H33.81L2.30267 16.8532C2.13674 16.8057 1.99519 16.6965 1.90696 16.5479C1.81873 16.3994 1.7905 16.2226 1.82804 16.0539C1.8344 15.9714 1.85699 15.8911 1.8945 15.8174C1.932 15.7437 1.98369 15.6782 2.04657 15.6246C2.10946 15.571 2.1823 15.5303 2.26092 15.5051C2.33953 15.4798 2.42236 15.4703 2.50463 15.4773L33.9918 21.3553C34.1558 21.4048 34.295 21.5149 34.3812 21.6632C34.4675 21.8116 34.4943 21.9872 34.4563 22.1546C34.4437 22.3129 34.3726 22.4609 34.2568 22.5695C34.1409 22.678 33.9888 22.7393 33.8302 22.7413H33.8605ZM34.012 20.2424H33.9514L2.47434 14.3745C2.31402 14.3209 2.17952 14.2092 2.09729 14.0613C2.01506 13.9134 1.99106 13.74 2.03 13.5752C2.03503 13.4923 2.05672 13.4112 2.09379 13.3368C2.13086 13.2625 2.18254 13.1964 2.24572 13.1425C2.30891 13.0887 2.3823 13.0482 2.4615 13.0234C2.54069 12.9987 2.62406 12.9902 2.7066 12.9985L34.1837 18.8766C34.3477 18.9261 34.4869 19.0362 34.5731 19.1845C34.6594 19.3329 34.6862 19.5084 34.6482 19.6758C34.633 19.8332 34.5589 19.9791 34.441 20.0841C34.323 20.1892 34.1698 20.2457 34.012 20.2424Z" fill="#FBC405"/>
</g>
<defs>
<clipPath id="clip0_921_1216">
<rect width="200" height="32" fill="white"/>
</clipPath>
</defs>
</svg>
